<svg xmlns="http://www.w3.org/2000/svg" viewBox="0 0 87.39 198"><defs><style>.cls-1{fill:#fff;}.cls-2{fill:#c80f2e;}.cls-3{fill:#1d4289;}</style></defs><title>Fichier 1</title><g id="Calque_2" data-name="Calque 2"><g id="Calque_1-2" data-name="Calque 1"><g id="g3029"><path id="rect2987" class="cls-1" d="M20.4,0H67A20.35,20.35,0,0,1,87.39,20.29V177.62A20.35,20.35,0,0,1,67.07,198H20.4A20.35,20.35,0,0,1,0,177.72V20.38A20.35,20.35,0,0,1,20.31,0Z"/><path id="path2989" class="cls-2" d="M55.39,36l.07.67c1.4.83,2.13,1.5,3.57,2.42,3.77,2.39,8.38,6.64,7.82,21.22,1.08,3.19,1.56,9.41,2.52,11.39,1.93,3.92,3.28,6.48,3.87,10.15,0,0,.57,5.74,1.3,6.15,3.9.9,2.78,1.29,3.32,2s2.87.74,2.87,2.84a12,12,0,0,1,1.82,3.26V20.23A15.68,15.68,0,0,0,66.9,4.51h-15c2.39.87,3.76,1.89,4.56,3.48,1.91.16,4.19,4.47.64,10.88,1.56,1.09.35,2.68-.76,4.52C56,24,55.65,25,54.6,25c-1.4,2.9-3,5.65-4.27,5.8A2.05,2.05,0,0,0,50.26,33a21.74,21.74,0,0,1,5.14,3Z"/><path id="path2991" class="cls-2" d="M69.33,192.86l-.16,0c6.86-4.19,2.62-12.09,1.31-16.77l.26-.79c.35-.65-.39-2.14-.39-2.14-.86-.7-1-4.6-1.49-6.38-.74-2.91,1.28-8,1.28-9.7S68.86,153,66.48,150c-.58-.67-2.3-15.38-3.83-19.11-2.14-5.14-2.78-4.31-5.33-10.46-1.93-4.31-.42-10.66-4.82-25.4l1-.93S50,81.32,48.85,77.8s-3.19-3.73-3.19-3.73l.13-1.82C46,71.71,50.06,61,50.41,60.67c0-.22,5.94-4.28,6-3.67.48,2.62,2.78,15.92,3.77,18s4.4,8.65,6,12.7a14,14,0,1,0,16.38,18.73l0,70.92a15.54,15.54,0,0,1-13.17,15.48Z"/><path id="path2993" class="cls-3" d="M46.85,4.84c-5.08,2-5.78,4.19-6,11.26-.85.09-2.63-.74-2,3.57,0,0,.32,2.87,1.46,2.39-.89,6.25-.18,7.82-4.32,8.26-.89.1-2,.16-3.31.23l-.41.57c-5.67.54-8.47.18-12.12,5a52.18,52.18,0,0,0-4.74,8.19s-1.69,4.2-2.2,5.9c-1.62,3.42-5.59,11-6.77,15.83-.38,1.65-1.12,2.17-.07,4.56,1.56,3.44-1,4.33,7.83,4.08v2A14.61,14.61,0,0,0,11.32,80,42,42,0,0,0,9.54,90.22c.16,7.56,6.3,13.87,8.11,21.41l4.11.57c2.22,5.14,12,19,14.22,21.22l.09.1c.51,1.31,3,2.93,4.5,4.56A104,104,0,0,0,51,147.65a57.51,57.51,0,0,0,6.43,4.4c-.07,0,1.33,2.78,2,5.07-2.8,2.26,2.64,6.41,4.3,13.27.09.93-1.6,1.85.92,4.11-.16,10.37-3.31,15.8,2,18.66H20.14A15.68,15.68,0,0,1,4.84,177.5v-157a15.66,15.66,0,0,1,15.3-15.7Z"/></g></g></g></svg>